<?xml version="1.0" encoding="UTF-8"?>
<svg width="800px" height="560px" viewBox="0 0 800 560" version="1.1" xmlns="http://www.w3.org/2000/svg" xmlns:xlink="http://www.w3.org/1999/xlink">
    <title>pic_banner_bg_grid</title>
    <defs>
        <linearGradient x1="29.7556498%" y1="100%" x2="29.7556498%" y2="63.2568816%" id="linearGradient-1">
            <stop stop-color="#EEEEEE" stop-opacity="0" offset="0%"></stop>
            <stop stop-color="#DBDBDB" offset="100%"></stop>
        </linearGradient>
        <rect id="path-2" x="0" y="0" width="800" height="560"></rect>
        <linearGradient x1="0%" y1="50%" x2="100%" y2="50%" id="linearGradient-4">
            <stop stop-color="#EEEEEE" stop-opacity="0" offset="0%"></stop>
            <stop stop-color="#EBEBEB" offset="12.3351982%"></stop>
            <stop stop-color="#DBDBDB" offset="87.2645352%"></stop>
            <stop stop-color="#D8D8D8" stop-opacity="0" offset="100%"></stop>
        </linearGradient>
        <rect id="path-5" x="0" y="0" width="800" height="579"></rect>
    </defs>
    <g id="20220602-盲盒" stroke="none" stroke-width="1" fill="none" fill-rule="evenodd">
        <g id="首页-lg" transform="translate(-304.000000, -89.000000)">
            <g id="banner" transform="translate(0.000000, 88.000000)">
                <g id="pic_banner_bg_grid" transform="translate(304.000000, 1.000000)">
                    <mask id="mask-3" fill="white">
                        <use xlink:href="#path-2"></use>
                    </mask>
                    <use id="蒙版" fill="url(#linearGradient-1)" xlink:href="#path-2"></use>
                    <g id="编组-2" mask="url(#mask-3)">
                        <g transform="translate(0.000000, 0.009484)">
                            <mask id="mask-6" fill="white">
                                <use xlink:href="#path-5"></use>
                            </mask>
                            <use id="蒙版备份" stroke="none" fill="url(#linearGradient-4)" fill-rule="evenodd" xlink:href="#path-5"></use>
                            <g id="横线" stroke="none" stroke-width="1" fill="none" fill-rule="evenodd" mask="url(#mask-6)" fill-opacity="0.2">
                                <g transform="translate(-320.000000, 15.000000)" fill="#FFFFFF">
                                    <rect id="矩形" x="0" y="0" width="1964" height="1"></rect>
                                    <rect id="矩形备份-3" x="0" y="31" width="1964" height="1"></rect>
                                    <rect id="矩形备份-4" x="0" y="62" width="1964" height="1"></rect>
                                    <rect id="矩形备份-5" x="0" y="93" width="1964" height="1"></rect>
                                    <rect id="矩形备份-6" x="0" y="124" width="1964" height="1"></rect>
                                    <rect id="矩形备份-7" x="0" y="155" width="1964" height="1"></rect>
                                    <rect id="矩形备份-8" x="0" y="186" width="1964" height="1"></rect>
                                    <rect id="矩形备份-9" x="0" y="217" width="1964" height="1"></rect>
                                    <rect id="矩形备份-17" x="0" y="248" width="1964" height="1"></rect>
                                    <rect id="矩形备份-16" x="0" y="279" width="1964" height="1"></rect>
                                    <rect id="矩形备份-15" x="0" y="310" width="1964" height="1"></rect>
                                    <rect id="矩形备份-14" x="0" y="341" width="1964" height="1"></rect>
                                    <rect id="矩形备份-13" x="0" y="372" width="1964" height="1"></rect>
                                    <rect id="矩形备份-25" x="0" y="403" width="1964" height="1"></rect>
                                    <rect id="矩形备份-24" x="0" y="434" width="1964" height="1"></rect>
                                    <rect id="矩形备份-23" x="0" y="465" width="1964" height="1"></rect>
                                    <rect id="矩形备份-22" x="0" y="496" width="1964" height="1"></rect>
                                    <rect id="矩形备份-20" x="0" y="527" width="1964" height="1"></rect>
                                </g>
                            </g>
                            <g id="竖线" stroke="none" stroke-width="1" fill="none" fill-rule="evenodd" mask="url(#mask-6)" fill-opacity="0.2">
                                <g transform="translate(-50.000000, 273.000000) rotate(90.000000) translate(50.000000, -273.000000) translate(-393.000000, 40.000000)" fill="#FFFFFF">
                                    <rect id="矩形" x="0.490516315" y="92.5" width="686" height="1"></rect>
                                    <rect id="矩形备份-3" x="0.490516315" y="123.5" width="686" height="1"></rect>
                                    <rect id="矩形备份-4" x="0.490516315" y="154.5" width="686" height="1"></rect>
                                    <rect id="矩形备份-12" x="0.490516315" y="-0.5" width="686" height="1"></rect>
                                    <rect id="矩形备份-11" x="0.490516315" y="30.5" width="686" height="1"></rect>
                                    <rect id="矩形备份-10" x="0.490516315" y="61.5" width="686" height="1"></rect>
                                </g>
                            </g>
                            <g id="竖线备份-4" stroke="none" stroke-width="1" fill="none" fill-rule="evenodd" mask="url(#mask-6)" fill-opacity="0.2">
                                <g transform="translate(446.000000, 273.000000) rotate(90.000000) translate(-446.000000, -273.000000) translate(103.000000, 40.000000)" fill="#FFFFFF">
                                    <rect id="矩形" x="0.490516315" y="92.5" width="686" height="1"></rect>
                                    <rect id="矩形备份-3" x="0.490516315" y="123.5" width="686" height="1"></rect>
                                    <rect id="矩形备份-4" x="0.490516315" y="154.5" width="686" height="1"></rect>
                                    <rect id="矩形备份-12" x="0.490516315" y="-0.5" width="686" height="1"></rect>
                                    <rect id="矩形备份-11" x="0.490516315" y="30.5" width="686" height="1"></rect>
                                    <rect id="矩形备份-10" x="0.490516315" y="61.5" width="686" height="1"></rect>
                                    <rect id="矩形备份-5" x="0.490516315" y="185.5" width="686" height="1"></rect>
                                    <rect id="矩形备份-6" x="0.490516315" y="216.5" width="686" height="1"></rect>
                                    <rect id="矩形备份-7" x="0.490516315" y="247.5" width="686" height="1"></rect>
                                    <rect id="矩形备份-8" x="0.490516315" y="278.5" width="686" height="1"></rect>
                                    <rect id="矩形备份-9" x="0.490516315" y="309.5" width="686" height="1"></rect>
                                    <rect id="矩形备份-17" x="0.490516315" y="340.5" width="686" height="1"></rect>
                                    <rect id="矩形备份-16" x="0.490516315" y="371.5" width="686" height="1"></rect>
                                    <rect id="矩形备份-15" x="0.490516315" y="402.5" width="686" height="1"></rect>
                                    <rect id="矩形备份-14" x="0.490516315" y="433.5" width="686" height="1"></rect>
                                    <rect id="矩形备份-13" x="0.490516315" y="465.5" width="686" height="1"></rect>
                                </g>
                            </g>
                            <g id="竖线备份-5" stroke="none" stroke-width="1" fill="none" fill-rule="evenodd" mask="url(#mask-6)" fill-opacity="0.2">
                                <g transform="translate(942.000000, 273.000000) rotate(90.000000) translate(-942.000000, -273.000000) translate(599.000000, 40.000000)" fill="#FFFFFF">
                                    <rect id="矩形备份-15" x="0.490516315" y="402.5" width="686" height="1"></rect>
                                    <rect id="矩形备份-14" x="0.490516315" y="433.5" width="686" height="1"></rect>
                                    <rect id="矩形备份-13" x="0.490516315" y="464.5" width="686" height="1"></rect>
                                </g>
                            </g>
                        </g>
                    </g>
                </g>
            </g>
        </g>
    </g>
</svg>